<svg width="18" height="17" viewBox="0 0 18 17" fill="none" xmlns="http://www.w3.org/2000/svg">
<path fill-rule="evenodd" clip-rule="evenodd" d="M17 8.90625C17 13.3243 13.418 16.9062 9 16.9062C4.582 16.9062 1 13.3243 1 8.90625C1 4.48825 4.582 0.90625 9 0.90625C13.418 0.90625 17 4.48825 17 8.90625ZM8.52667 9.96625H9.53333C9.69533 9.96625 9.78267 9.85358 9.78267 9.70425V9.29358C9.78267 8.98558 10.1053 8.72958 10.4847 8.43025C11.0227 8.00425 11.674 7.48958 11.674 6.60558C11.674 5.38625 10.5667 4.51492 9.26 4.51492C7.66667 4.51492 6.82067 5.61025 6.82067 5.61025C6.734 5.69692 6.72067 5.84692 6.82067 5.93358L7.40533 6.50625C7.49267 6.58092 7.58 6.58092 7.67933 6.51892C7.73533 6.48225 7.79533 6.42958 7.864 6.37025C8.10067 6.16358 8.43467 5.87158 9.02333 5.87158C9.64533 5.87158 10.0187 6.25758 10.0187 6.70492C10.0187 7.10758 9.65 7.41958 9.25267 7.75558C8.79 8.14692 8.28933 8.57092 8.28933 9.20692V9.72958C8.28933 9.86625 8.40133 9.96558 8.52533 9.96558L8.52667 9.96625ZM9.024 13.4749C8.464 13.4749 8.004 13.0149 8.004 12.4549C8.004 11.8949 8.464 11.4216 9.024 11.4216C9.584 11.4216 10.0573 11.8949 10.0573 12.4549C10.0573 13.0149 9.584 13.4749 9.024 13.4749Z" fill="black"/>
</svg>
